# xmcd CD database file
#
# Track frame offsets:
#	150
#	17204
#	37709
#	55033
#	72723
#	89853
#	106358
#	124083
#	141181
#	169765
#	188608
#	205860
#	223205
#	241358
#	260023
#	278983
#	298435
#	320150
#	337758
#
# Disc length: 4787 seconds
#
# Revision: 2
# Processed by: cddbd v1.5.2PL0 Copyright (c) Steve Scherf et al.
# Submitted via: CDex 1.76
#
DISCID=3312b113
DTITLE=Keith Urban - The Story So Far
DYEAR=2012
DGENRE=Country
TTITLE0=Kiss A Girl
TTITLE1=Long Hot Summer
TTITLE2=Somebody Like You (Radio Remix)
TTITLE3=Making Memories Of Us (Radio Single Edit)
TTITLE4=Days Go By
TTITLE5=Put You In A Song
TTITLE6=Without You
TTITLE7=You Look Good In My Shirt
TTITLE8=Stupid Boy
TTITLE9=Once In A Lifetime (Radio Edit)
TTITLE10=Sweet Thing
TTITLE11=You'll Think Of Me (Single Edit)
TTITLE12=I Told You So (Single Edit)
TTITLE13=Only You Can Love Me This Way
TTITLE14=You're My Better Half (Single Edit)
TTITLE15=Tonight I Wanna Cry
TTITLE16=For You
TTITLE17=Raining On Sunday (Single Edit)
TTITLE18=Better Life
EXTD=YEAR: 2012
EXTT0=
EXTT1=
EXTT2=
EXTT3=
EXTT4=
EXTT5=
EXTT6=
EXTT7=
EXTT8=
EXTT9=
EXTT10=
EXTT11=
EXTT12=
EXTT13=
EXTT14=
EXTT15=
EXTT16=
EXTT17=
EXTT18=
PLAYORDER=
